<svg width="71" height="71" viewBox="0 0 71 71" fill="none" xmlns="http://www.w3.org/2000/svg">
<path d="M57.6888 11.8327H48.8138V7.39518C48.8138 7.00288 48.658 6.62665 48.3806 6.34925C48.1032 6.07186 47.7269 5.91602 47.3346 5.91602C46.9423 5.91602 46.5661 6.07186 46.2887 6.34925C46.0113 6.62665 45.8555 7.00288 45.8555 7.39518V11.8327H25.1471V7.39518C25.1471 7.00288 24.9913 6.62665 24.7139 6.34925C24.4365 6.07186 24.0603 5.91602 23.668 5.91602C23.2757 5.91602 22.8994 6.07186 22.622 6.34925C22.3446 6.62665 22.1888 7.00288 22.1888 7.39518V11.8327H13.3138C11.353 11.835 9.47323 12.615 8.08675 14.0015C6.70027 15.3879 5.92032 17.2677 5.91797 19.2285V57.6869C5.92032 59.6476 6.70027 61.5274 8.08675 62.9139C9.47323 64.3004 11.353 65.0803 13.3138 65.0827H57.6888C59.6498 65.0811 61.5301 64.3014 62.9167 62.9148C64.3034 61.5281 65.0831 59.6479 65.0846 57.6869V19.2285C65.0831 17.2675 64.3034 15.3873 62.9167 14.0006C61.5301 12.614 59.6498 11.8342 57.6888 11.8327ZM62.1263 57.6869C62.1263 58.8638 61.6588 59.9924 60.8266 60.8246C59.9944 61.6568 58.8657 62.1244 57.6888 62.1244H13.3138C12.1369 62.1244 11.0082 61.6568 10.176 60.8246C9.34382 59.9924 8.8763 58.8638 8.8763 57.6869V32.541H62.1263V57.6869ZM62.1263 29.5827H8.8763V19.2285C8.8763 16.779 10.8584 14.791 13.3138 14.791H22.1888V19.2285C22.1888 19.6208 22.3446 19.997 22.622 20.2744C22.8994 20.5518 23.2757 20.7077 23.668 20.7077C24.0603 20.7077 24.4365 20.5518 24.7139 20.2744C24.9913 19.997 25.1471 19.6208 25.1471 19.2285V14.791H45.8555V19.2285C45.8555 19.6208 46.0113 19.997 46.2887 20.2744C46.5661 20.5518 46.9423 20.7077 47.3346 20.7077C47.7269 20.7077 48.1032 20.5518 48.3806 20.2744C48.658 19.997 48.8138 19.6208 48.8138 19.2285V14.791H57.6888C58.8657 14.791 59.9944 15.2585 60.8266 16.0907C61.6588 16.9229 62.1263 18.0516 62.1263 19.2285V29.5827Z" fill="#6996C1"/>
</svg>
