<svg width="72" height="72" viewBox="0 0 72 72" fill="none" xmlns="http://www.w3.org/2000/svg">
<path d="M35.9992 10.7992C34.567 10.7992 33.1935 11.3681 32.1808 12.3808C31.1681 13.3935 30.5992 14.767 30.5992 16.1992C30.5992 17.6314 31.1681 19.0049 32.1808 20.0176C33.1935 21.0303 34.567 21.5992 35.9992 21.5992C37.4314 21.5992 38.8049 21.0303 39.8176 20.0176C40.8303 19.0049 41.3992 17.6314 41.3992 16.1992C41.3992 14.767 40.8303 13.3935 39.8176 12.3808C38.8049 11.3681 37.4314 10.7992 35.9992 10.7992ZM26.9992 16.1992C26.9992 13.8123 27.9474 11.5231 29.6353 9.83526C31.3231 8.14743 33.6123 7.19922 35.9992 7.19922C38.3862 7.19922 40.6754 8.14743 42.3632 9.83526C44.051 11.5231 44.9992 13.8123 44.9992 16.1992C44.9992 18.5862 44.051 20.8754 42.3632 22.5632C40.6754 24.251 38.3862 25.1992 35.9992 25.1992C33.6123 25.1992 31.3231 24.251 29.6353 22.5632C27.9474 20.8754 26.9992 18.5862 26.9992 16.1992ZM55.7992 14.3992C54.8444 14.3992 53.9288 14.7785 53.2536 15.4536C52.5785 16.1288 52.1992 17.0444 52.1992 17.9992C52.1992 18.954 52.5785 19.8697 53.2536 20.5448C53.9288 21.2199 54.8444 21.5992 55.7992 21.5992C56.754 21.5992 57.6697 21.2199 58.3448 20.5448C59.0199 19.8697 59.3992 18.954 59.3992 17.9992C59.3992 17.0444 59.0199 16.1288 58.3448 15.4536C57.6697 14.7785 56.754 14.3992 55.7992 14.3992ZM48.5992 17.9992C48.5992 16.0897 49.3578 14.2583 50.708 12.908C52.0583 11.5578 53.8897 10.7992 55.7992 10.7992C57.7088 10.7992 59.5401 11.5578 60.8904 12.908C62.2406 14.2583 62.9992 16.0897 62.9992 17.9992C62.9992 19.9088 62.2406 21.7401 60.8904 23.0904C59.5401 24.4406 57.7088 25.1992 55.7992 25.1992C53.8897 25.1992 52.0583 24.4406 50.708 23.0904C49.3578 21.7401 48.5992 19.9088 48.5992 17.9992ZM12.5992 17.9992C12.5992 17.0444 12.9785 16.1288 13.6536 15.4536C14.3288 14.7785 15.2444 14.3992 16.1992 14.3992C17.154 14.3992 18.0697 14.7785 18.7448 15.4536C19.4199 16.1288 19.7992 17.0444 19.7992 17.9992C19.7992 18.954 19.4199 19.8697 18.7448 20.5448C18.0697 21.2199 17.154 21.5992 16.1992 21.5992C15.2444 21.5992 14.3288 21.2199 13.6536 20.5448C12.9785 19.8697 12.5992 18.954 12.5992 17.9992ZM16.1992 10.7992C14.2897 10.7992 12.4583 11.5578 11.108 12.908C9.75779 14.2583 8.99922 16.0897 8.99922 17.9992C8.99922 19.9088 9.75779 21.7401 11.108 23.0904C12.4583 24.4406 14.2897 25.1992 16.1992 25.1992C18.1088 25.1992 19.9401 24.4406 21.2904 23.0904C22.6406 21.7401 23.3992 19.9088 23.3992 17.9992C23.3992 16.0897 22.6406 14.2583 21.2904 12.908C19.9401 11.5578 18.1088 10.7992 16.1992 10.7992ZM18.3592 53.992C17.3845 54.0408 16.4099 53.8909 15.4949 53.5515C14.5799 53.212 13.7434 52.69 13.0363 52.0173C12.3292 51.3446 11.7663 50.5351 11.3817 49.6381C10.9972 48.741 10.799 47.7752 10.7992 46.7992V33.2992C10.7992 33.0605 10.894 32.8316 11.0628 32.6628C11.2316 32.494 11.4605 32.3992 11.6992 32.3992H18.0496C18.1936 31.078 18.6616 29.8504 19.3636 28.7992H11.6992C9.21522 28.7992 7.19922 30.8152 7.19922 33.2992V46.7992C7.19905 48.3404 7.52876 49.8639 8.16618 51.2671C8.80361 52.6703 9.73399 53.9209 10.8948 54.9347C12.0556 55.9486 13.42 56.7022 14.8963 57.145C16.3725 57.5879 17.9264 57.7096 19.4536 57.502C18.9691 56.3728 18.6023 55.1965 18.3592 53.992ZM52.5448 57.502C54.072 57.7096 55.6259 57.5879 57.1022 57.145C58.5784 56.7022 59.9428 55.9486 61.1036 54.9347C62.2644 53.9209 63.1948 52.6703 63.8322 51.2671C64.4697 49.8639 64.7994 48.3404 64.7992 46.7992V33.2992C64.7992 30.8152 62.7832 28.7992 60.2992 28.7992H52.6348C53.3404 29.8504 53.8048 31.078 53.9488 32.3992H60.2992C60.5379 32.3992 60.7668 32.494 60.9356 32.6628C61.1044 32.8316 61.1992 33.0605 61.1992 33.2992V46.7992C61.1995 47.7752 61.0013 48.741 60.6167 49.6381C60.2321 50.5351 59.6692 51.3446 58.9621 52.0173C58.255 52.69 57.4186 53.212 56.5035 53.5515C55.5885 53.8909 54.614 54.0408 53.6392 53.992C53.396 55.1965 53.0293 56.3727 52.5448 57.502ZM26.0992 28.7992C23.6152 28.7992 21.5992 30.8152 21.5992 33.2992V50.3992C21.5992 54.2183 23.1164 57.881 25.8169 60.5816C28.5174 63.2821 32.1801 64.7992 35.9992 64.7992C39.8183 64.7992 43.481 63.2821 46.1816 60.5816C48.8821 57.881 50.3992 54.2183 50.3992 50.3992V33.2992C50.3992 30.8152 48.3832 28.7992 45.8992 28.7992H26.0992ZM25.1992 33.2992C25.1992 33.0605 25.294 32.8316 25.4628 32.6628C25.6316 32.494 25.8605 32.3992 26.0992 32.3992H45.8992C46.1379 32.3992 46.3668 32.494 46.5356 32.6628C46.7044 32.8316 46.7992 33.0605 46.7992 33.2992V50.3992C46.7992 53.2636 45.6614 56.0106 43.636 58.036C41.6106 60.0614 38.8636 61.1992 35.9992 61.1992C33.1349 61.1992 30.3879 60.0614 28.3625 58.036C26.3371 56.0106 25.1992 53.2636 25.1992 50.3992V33.2992Z" fill="#6996C1"/>
</svg>
