<svg width="68" height="68" viewBox="0 0 68 68" fill="none" xmlns="http://www.w3.org/2000/svg">
<path d="M57.375 20.1875C58.2204 20.1875 59.0311 19.8517 59.6289 19.2539C60.2267 18.6561 60.5625 17.8454 60.5625 17V12.75C60.5625 11.9046 60.2267 11.0939 59.6289 10.4961C59.0311 9.89832 58.2204 9.5625 57.375 9.5625H10.625C9.77962 9.5625 8.96887 9.89832 8.3711 10.4961C7.77333 11.0939 7.4375 11.9046 7.4375 12.75V17C7.4375 17.8454 7.77333 18.6561 8.3711 19.2539C8.96887 19.8517 9.77962 20.1875 10.625 20.1875H11.6875V47.8125H8.5C8.21821 47.8125 7.94796 47.9244 7.7487 48.1237C7.54944 48.323 7.4375 48.5932 7.4375 48.875C7.4375 49.1568 7.54944 49.427 7.7487 49.6263C7.94796 49.8256 8.21821 49.9375 8.5 49.9375H32.9375V56.4187C31.6476 56.6821 30.5014 57.4149 29.7211 58.4753C28.9408 59.5357 28.5821 60.848 28.7144 62.1579C28.8467 63.4677 29.4607 64.6818 30.4373 65.5647C31.4139 66.4476 32.6835 66.9364 34 66.9364C35.3165 66.9364 36.5861 66.4476 37.5627 65.5647C38.5393 64.6818 39.1533 63.4677 39.2856 62.1579C39.4179 60.848 39.0592 59.5357 38.2789 58.4753C37.4986 57.4149 36.3524 56.6821 35.0625 56.4187V49.9375H59.5C59.7818 49.9375 60.052 49.8256 60.2513 49.6263C60.4506 49.427 60.5625 49.1568 60.5625 48.875C60.5625 48.5932 60.4506 48.323 60.2513 48.1237C60.052 47.9244 59.7818 47.8125 59.5 47.8125H56.3125V20.1875H57.375ZM37.1875 61.625C37.1875 62.2554 37.0006 62.8717 36.6503 63.3959C36.3001 63.9201 35.8022 64.3286 35.2198 64.5699C34.6374 64.8111 33.9965 64.8742 33.3781 64.7513C32.7598 64.6283 32.1919 64.3247 31.7461 63.8789C31.3003 63.4331 30.9967 62.8652 30.8737 62.2468C30.7508 61.6285 30.8139 60.9876 31.0551 60.4052C31.2964 59.8228 31.7049 59.3249 32.2291 58.9747C32.7533 58.6244 33.3696 58.4375 34 58.4375C34.8454 58.4375 35.6561 58.7733 36.2539 59.3711C36.8517 59.9689 37.1875 60.7796 37.1875 61.625ZM9.5625 17V12.75C9.5625 12.4682 9.67444 12.198 9.8737 11.9987C10.073 11.7994 10.3432 11.6875 10.625 11.6875H57.375C57.6568 11.6875 57.927 11.7994 58.1263 11.9987C58.3256 12.198 58.4375 12.4682 58.4375 12.75V17C58.4375 17.2818 58.3256 17.552 58.1263 17.7513C57.927 17.9506 57.6568 18.0625 57.375 18.0625H10.625C10.3432 18.0625 10.073 17.9506 9.8737 17.7513C9.67444 17.552 9.5625 17.2818 9.5625 17ZM54.1875 47.8125H13.8125V20.1875H54.1875V47.8125Z" fill="#6996C1"/>
</svg>
