<svg width="76" height="76" viewBox="0 0 76 76" fill="none" xmlns="http://www.w3.org/2000/svg">
<path d="M51.0611 16.625C51.0611 16.3101 51.1862 16.008 51.4089 15.7853C51.6316 15.5626 51.9337 15.4375 52.2486 15.4375H66.4986C66.8135 15.4375 67.1156 15.5626 67.3383 15.7853C67.561 16.008 67.6861 16.3101 67.6861 16.625C67.6861 16.9399 67.561 17.242 67.3383 17.4647C67.1156 17.6874 66.8135 17.8125 66.4986 17.8125H52.2486C51.9337 17.8125 51.6316 17.6874 51.4089 17.4647C51.1862 17.242 51.0611 16.9399 51.0611 16.625ZM65.9939 28.1141C67.9385 33.6188 68.2152 39.575 66.7893 45.2363C65.3634 50.8976 62.2984 56.0122 57.9783 59.9391L57.7408 60.1766C52.3089 65.0154 45.288 67.689 38.0135 67.689C30.7389 67.689 23.718 65.0154 18.2861 60.1766C18.1843 60.113 18.094 60.0327 18.0189 59.9391C13.5948 55.9058 10.4934 50.6292 9.12173 44.8018C7.75011 38.9743 8.17235 32.8684 10.3331 27.2852C12.4938 21.7021 16.292 16.9026 21.2292 13.5167C26.1664 10.1308 32.0119 8.31672 37.9986 8.3125C39.5689 8.31191 41.137 8.43101 42.6892 8.66875C42.9968 8.72677 43.2702 8.90103 43.4526 9.15534C43.635 9.40964 43.7125 9.72445 43.6689 10.0344C43.6437 10.1884 43.5883 10.336 43.506 10.4686C43.4237 10.6013 43.3161 10.7164 43.1892 10.8074C43.0624 10.8984 42.9189 10.9634 42.7668 10.9989C42.6148 11.0344 42.4573 11.0395 42.3033 11.0141C40.8782 10.8009 39.4395 10.6917 37.9986 10.6875C32.6024 10.6879 27.3272 12.2868 22.8388 15.2824C18.3504 18.278 14.85 22.5361 12.7793 27.5192C10.7085 32.5023 10.1603 37.9871 11.2038 43.2815C12.2473 48.5759 14.8357 53.4425 18.6424 57.2672C21.5904 52.3284 26.3177 48.7059 31.8533 47.1437C29.2825 45.7732 27.2437 43.5825 26.061 40.9201C24.8783 38.2577 24.6195 35.2763 25.3259 32.4499C26.0322 29.6236 27.6632 27.1144 29.9594 25.3215C32.2556 23.5285 35.0853 22.5546 37.9986 22.5546C40.9119 22.5546 43.7416 23.5285 46.0378 25.3215C48.334 27.1144 49.965 29.6236 50.6713 32.4499C51.3777 35.2763 51.1189 38.2577 49.9362 40.9201C48.7535 43.5825 46.7147 45.7732 44.1439 47.1437C49.6795 48.7059 54.4068 52.3284 57.3549 57.2672C62.4471 52.1474 65.3073 45.221 65.3111 38C65.3051 34.8974 64.7834 31.8174 63.7674 28.8859C63.7111 28.74 63.6851 28.5842 63.6907 28.428C63.6963 28.2717 63.7336 28.1182 63.8001 27.9767C63.8667 27.8352 63.9613 27.7087 64.0781 27.6047C64.1949 27.5008 64.3316 27.4216 64.4799 27.3719C64.628 27.3205 64.7848 27.299 64.9412 27.3086C65.0977 27.3182 65.2507 27.3586 65.3915 27.4276C65.5322 27.4966 65.6579 27.5928 65.7613 27.7106C65.8647 27.8284 65.9438 27.9655 65.9939 28.1141ZM37.9986 46.3125C40.1124 46.3125 42.1787 45.6857 43.9363 44.5113C45.6938 43.337 47.0637 41.6678 47.8726 39.7149C48.6815 37.762 48.8931 35.6131 48.4807 33.54C48.0684 31.4668 47.0505 29.5625 45.5558 28.0678C44.0611 26.5731 42.1568 25.5552 40.0836 25.1429C38.0105 24.7305 35.8616 24.9421 33.9087 25.751C31.9558 26.5599 30.2866 27.9298 29.1123 29.6873C27.9379 31.4449 27.3111 33.5112 27.3111 35.625C27.3111 38.4595 28.4371 41.1779 30.4414 43.1822C32.4457 45.1865 35.1641 46.3125 37.9986 46.3125ZM37.9986 65.3125C44.4221 65.3216 50.6401 63.049 55.5439 58.9C53.7807 55.8017 51.2284 53.2255 48.1467 51.4334C45.0649 49.6414 41.5635 48.6973 37.9986 48.6973C34.4337 48.6973 30.9323 49.6414 27.8505 51.4334C24.7688 53.2255 22.2165 55.8017 20.4533 58.9C25.3571 63.049 31.5751 65.3216 37.9986 65.3125Z" fill="#6996C1"/>
</svg>
